<svg width="1280" height="502" viewBox="0 0 1280 502" fill="none" xmlns="http://www.w3.org/2000/svg">
<path opacity="0.24" d="M1098.16 -522.64C1072.36 -500.281 1031.36 -431.9 1073.71 -337.253C1126.65 -218.943 1247.74 -180.671 1316.41 -76.6713C1367.09 0.0882296 1449.8 210.321 1383.66 339.666" stroke="url(#paint0_linear_867_53084)"/>
<path opacity="0.24" d="M1067.45 -481.297C1041.65 -458.937 1000.65 -390.556 1043 -295.909C1095.94 -177.6 1217.03 -139.327 1285.7 -35.3275C1336.38 41.432 1419.09 251.665 1352.95 381.01" stroke="url(#paint1_linear_867_53084)"/>
<path opacity="0.24" d="M1035.69 -440.746C1009.9 -418.386 968.9 -350.006 1011.25 -255.358C1064.19 -137.049 1185.28 -98.7764 1253.95 5.22326C1304.63 81.9828 1387.34 292.216 1321.2 421.56" stroke="url(#paint2_linear_867_53084)"/>
<path opacity="0.24" d="M1002.94 -400.996C977.147 -378.636 936.146 -310.256 978.496 -215.608C1031.43 -97.299 1152.53 -59.0264 1221.19 44.9733C1271.87 121.733 1354.58 331.966 1288.44 461.31" stroke="url(#paint3_linear_867_53084)"/>
<path opacity="0.24" d="M969.179 -362.101C943.385 -339.742 902.384 -271.361 944.734 -176.714C997.671 -58.4044 1118.76 -20.1319 1187.43 83.8678C1238.11 160.627 1320.82 370.861 1254.68 500.205" stroke="url(#paint4_linear_867_53084)"/>
<path opacity="0.24" d="M934.375 -324.14C908.58 -301.781 867.58 -233.4 909.929 -138.753C962.866 -20.4435 1083.96 17.8291 1152.63 121.829C1203.31 198.588 1286.02 408.821 1219.88 538.166" stroke="url(#paint5_linear_867_53084)"/>
<path opacity="0.24" d="M898.468 -287.211C872.674 -264.851 831.673 -196.471 874.023 -101.823C926.96 16.4862 1048.05 54.7588 1116.72 158.758C1167.4 235.518 1250.11 445.751 1183.97 575.096" stroke="url(#paint6_linear_867_53084)"/>
<path opacity="0.24" d="M861.39 -251.464C835.596 -229.105 794.595 -160.724 836.945 -66.077C889.882 52.2323 1010.98 90.5049 1079.64 194.505C1130.32 271.264 1213.03 481.497 1146.89 610.842" stroke="url(#paint7_linear_867_53084)"/>
<path opacity="0.24" d="M823.05 -217.07C797.256 -194.711 756.255 -126.33 798.605 -31.6825C851.542 86.6268 972.636 124.899 1041.3 228.899C1091.98 305.659 1174.69 515.892 1108.55 645.236" stroke="url(#paint8_linear_867_53084)"/>
<path opacity="0.24" d="M783.345 -184.265C757.551 -161.906 716.55 -93.5252 758.9 1.12221C811.837 119.432 932.931 157.704 1001.6 261.704C1052.28 338.463 1134.99 548.696 1068.85 678.041" stroke="url(#paint9_linear_867_53084)"/>
<path opacity="0.24" d="M742.156 -153.347C716.362 -130.988 675.361 -62.6073 717.711 32.0402C770.648 150.349 891.741 188.622 960.407 292.622C1011.09 369.381 1093.8 579.614 1027.66 708.959" stroke="url(#paint10_linear_867_53084)"/>
<path opacity="0.24" d="M699.355 -124.699C673.561 -102.339 632.56 -33.9588 674.91 60.6886C727.847 178.998 848.94 217.27 917.606 321.27C968.286 398.03 1051 608.263 984.858 737.607" stroke="url(#paint11_linear_867_53084)"/>
<path opacity="0.24" d="M654.818 -98.8278C629.024 -76.4684 588.023 -8.08772 630.373 86.5597C683.31 204.869 804.403 243.142 873.069 347.141C923.749 423.901 1006.46 634.134 940.32 763.478" stroke="url(#paint12_linear_867_53084)"/>
<path opacity="0.24" d="M608.457 -76.3981C582.662 -54.0387 541.662 14.342 584.011 108.989C636.948 227.299 758.042 265.571 826.708 369.571C877.388 446.33 960.097 656.564 893.959 785.908" stroke="url(#paint13_linear_867_53084)"/>
<path opacity="0.24" d="M560.25 -58.2575C534.455 -35.8981 493.455 32.4826 535.804 127.13C588.741 245.439 709.835 283.712 778.5 387.712C829.181 464.471 911.89 674.704 845.752 804.049" stroke="url(#paint14_linear_867_53084)"/>
<path opacity="0.24" d="M510.363 -45.4606C484.569 -23.1012 443.568 45.2795 485.918 139.927C538.855 258.236 659.948 296.509 728.614 400.508C779.294 477.268 862.004 687.501 795.865 816.846" stroke="url(#paint15_linear_867_53084)"/>
<path opacity="0.24" d="M459.238 -39.2028C433.444 -16.8434 392.443 51.5373 434.793 146.185C487.73 264.494 608.823 302.767 677.489 406.766C728.169 483.526 810.879 693.759 744.74 823.103" stroke="url(#paint16_linear_867_53084)"/>
<path opacity="0.24" d="M398.464 -40.7457C372.67 -18.3863 331.67 49.9943 374.019 144.642C426.956 262.951 548.05 301.224 616.715 405.223C667.396 481.983 750.105 692.216 683.967 821.56" stroke="url(#paint17_linear_867_53084)"/>
<path opacity="0.24" d="M346.959 -40.6715C321.164 -18.3121 280.164 50.0685 322.513 144.716C375.45 263.025 496.544 301.298 565.209 405.297C615.89 482.057 698.599 692.29 632.461 821.635" stroke="url(#paint18_linear_867_53084)"/>
<path opacity="0.24" d="M295.636 -36.3473C269.842 -13.9879 228.841 54.3927 271.191 149.04C324.128 267.349 445.222 305.622 513.887 409.622C564.568 486.381 647.277 696.614 581.139 825.959" stroke="url(#paint19_linear_867_53084)"/>
<path opacity="0.24" d="M244.845 -27.8043C219.051 -5.44494 178.05 62.9357 220.4 157.583C273.337 275.892 394.431 314.165 463.096 418.165C513.777 494.924 596.486 705.157 530.348 834.502" stroke="url(#paint20_linear_867_53084)"/>
<path opacity="0.24" d="M194.91 -15.1872C169.116 7.17225 128.115 75.5529 170.464 170.2C223.402 288.51 344.495 326.782 413.161 430.782C463.841 507.541 546.551 717.775 480.412 847.119" stroke="url(#paint21_linear_867_53084)"/>
<path opacity="0.24" d="M146.119 1.30504C120.325 23.6644 79.3238 92.0451 121.673 186.693C174.611 305.002 295.704 343.274 364.37 447.274C415.05 524.034 497.76 734.267 431.621 863.611" stroke="url(#paint22_linear_867_53084)"/>
<path opacity="0.24" d="M98.6949 21.3988C72.9008 43.7582 31.9 112.139 74.2496 206.786C127.187 325.096 248.28 363.368 316.946 467.368C367.626 544.127 450.336 754.361 384.197 883.705" stroke="url(#paint23_linear_867_53084)"/>
<path opacity="0.24" d="M52.8179 44.8089C27.0238 67.1683 -13.977 135.549 28.3727 230.196C81.3097 348.506 202.403 386.778 271.069 490.778C321.749 567.537 404.459 777.771 338.32 907.115" stroke="url(#paint24_linear_867_53084)"/>
<path opacity="0.24" d="M8.61283 71.2347C-17.1813 93.5941 -58.182 161.975 -15.8324 256.622C37.1047 374.932 158.198 413.204 226.864 517.204C277.544 593.963 360.254 804.196 294.115 933.541" stroke="url(#paint25_linear_867_53084)"/>
<path opacity="0.24" d="M-33.8383 100.407C-59.6324 122.766 -100.633 191.147 -58.2836 285.794C-5.34651 404.103 115.747 442.376 184.413 546.376C235.093 623.135 317.802 833.368 251.664 962.713" stroke="url(#paint26_linear_867_53084)"/>
<path opacity="0.24" d="M-74.4653 132.063C-100.259 154.422 -141.26 222.803 -98.9105 317.45C-45.9735 435.76 75.12 474.032 143.786 578.032C194.466 654.791 277.176 865.025 211.037 994.369" stroke="url(#paint27_linear_867_53084)"/>
<path opacity="0.24" d="M-113.2 165.993C-138.994 188.352 -179.995 256.733 -137.645 351.38C-84.7078 469.689 36.3856 507.962 105.051 611.962C155.732 688.721 238.441 898.954 172.303 1028.3" stroke="url(#paint28_linear_867_53084)"/>
<defs>
<linearGradient id="paint0_linear_867_53084" x1="1075" y1="-513.226" x2="1416.35" y2="326.374" gradientUnits="userSpaceOnUse">
<stop stop-color="white" stop-opacity="0.87"/>
<stop offset="1" stop-color="white" stop-opacity="0.24"/>
</linearGradient>
<linearGradient id="paint1_linear_867_53084" x1="1044.29" y1="-471.882" x2="1385.64" y2="367.718" gradientUnits="userSpaceOnUse">
<stop stop-color="white" stop-opacity="0.87"/>
<stop offset="1" stop-color="white" stop-opacity="0.24"/>
</linearGradient>
<linearGradient id="paint2_linear_867_53084" x1="1012.54" y1="-431.332" x2="1353.89" y2="408.269" gradientUnits="userSpaceOnUse">
<stop stop-color="white" stop-opacity="0.87"/>
<stop offset="1" stop-color="white" stop-opacity="0.24"/>
</linearGradient>
<linearGradient id="paint3_linear_867_53084" x1="979.786" y1="-391.582" x2="1321.14" y2="448.019" gradientUnits="userSpaceOnUse">
<stop stop-color="white" stop-opacity="0.87"/>
<stop offset="1" stop-color="white" stop-opacity="0.24"/>
</linearGradient>
<linearGradient id="paint4_linear_867_53084" x1="946.024" y1="-352.687" x2="1287.37" y2="486.914" gradientUnits="userSpaceOnUse">
<stop stop-color="white" stop-opacity="0.87"/>
<stop offset="1" stop-color="white" stop-opacity="0.24"/>
</linearGradient>
<linearGradient id="paint5_linear_867_53084" x1="911.219" y1="-314.726" x2="1252.57" y2="524.874" gradientUnits="userSpaceOnUse">
<stop stop-color="white" stop-opacity="0.87"/>
<stop offset="1" stop-color="white" stop-opacity="0.24"/>
</linearGradient>
<linearGradient id="paint6_linear_867_53084" x1="875.313" y1="-277.797" x2="1216.66" y2="561.804" gradientUnits="userSpaceOnUse">
<stop stop-color="white" stop-opacity="0.87"/>
<stop offset="1" stop-color="white" stop-opacity="0.24"/>
</linearGradient>
<linearGradient id="paint7_linear_867_53084" x1="838.235" y1="-242.05" x2="1179.59" y2="597.55" gradientUnits="userSpaceOnUse">
<stop stop-color="white" stop-opacity="0.87"/>
<stop offset="1" stop-color="white" stop-opacity="0.24"/>
</linearGradient>
<linearGradient id="paint8_linear_867_53084" x1="799.895" y1="-207.656" x2="1141.25" y2="631.945" gradientUnits="userSpaceOnUse">
<stop stop-color="white" stop-opacity="0.87"/>
<stop offset="1" stop-color="white" stop-opacity="0.24"/>
</linearGradient>
<linearGradient id="paint9_linear_867_53084" x1="760.19" y1="-174.851" x2="1101.54" y2="664.749" gradientUnits="userSpaceOnUse">
<stop stop-color="white" stop-opacity="0.87"/>
<stop offset="1" stop-color="white" stop-opacity="0.24"/>
</linearGradient>
<linearGradient id="paint10_linear_867_53084" x1="719.001" y1="-143.933" x2="1060.35" y2="695.667" gradientUnits="userSpaceOnUse">
<stop stop-color="white" stop-opacity="0.87"/>
<stop offset="1" stop-color="white" stop-opacity="0.24"/>
</linearGradient>
<linearGradient id="paint11_linear_867_53084" x1="676.2" y1="-115.285" x2="1017.55" y2="724.316" gradientUnits="userSpaceOnUse">
<stop stop-color="white" stop-opacity="0.87"/>
<stop offset="1" stop-color="white" stop-opacity="0.24"/>
</linearGradient>
<linearGradient id="paint12_linear_867_53084" x1="631.663" y1="-89.4137" x2="973.013" y2="750.187" gradientUnits="userSpaceOnUse">
<stop stop-color="white" stop-opacity="0.87"/>
<stop offset="1" stop-color="white" stop-opacity="0.24"/>
</linearGradient>
<linearGradient id="paint13_linear_867_53084" x1="585.301" y1="-66.984" x2="926.651" y2="772.617" gradientUnits="userSpaceOnUse">
<stop stop-color="white" stop-opacity="0.87"/>
<stop offset="1" stop-color="white" stop-opacity="0.24"/>
</linearGradient>
<linearGradient id="paint14_linear_867_53084" x1="537.094" y1="-48.8434" x2="878.444" y2="790.757" gradientUnits="userSpaceOnUse">
<stop stop-color="white" stop-opacity="0.87"/>
<stop offset="1" stop-color="white" stop-opacity="0.24"/>
</linearGradient>
<linearGradient id="paint15_linear_867_53084" x1="487.208" y1="-36.0465" x2="828.558" y2="803.554" gradientUnits="userSpaceOnUse">
<stop stop-color="white" stop-opacity="0.87"/>
<stop offset="1" stop-color="white" stop-opacity="0.24"/>
</linearGradient>
<linearGradient id="paint16_linear_867_53084" x1="436.083" y1="-29.7887" x2="777.433" y2="809.812" gradientUnits="userSpaceOnUse">
<stop stop-color="white" stop-opacity="0.87"/>
<stop offset="1" stop-color="white" stop-opacity="0.24"/>
</linearGradient>
<linearGradient id="paint17_linear_867_53084" x1="375.309" y1="-31.3317" x2="716.659" y2="808.269" gradientUnits="userSpaceOnUse">
<stop stop-color="white" stop-opacity="0.87"/>
<stop offset="1" stop-color="white" stop-opacity="0.24"/>
</linearGradient>
<linearGradient id="paint18_linear_867_53084" x1="323.803" y1="-31.2575" x2="665.153" y2="808.343" gradientUnits="userSpaceOnUse">
<stop stop-color="white" stop-opacity="0.87"/>
<stop offset="1" stop-color="white" stop-opacity="0.24"/>
</linearGradient>
<linearGradient id="paint19_linear_867_53084" x1="272.481" y1="-26.9332" x2="613.831" y2="812.667" gradientUnits="userSpaceOnUse">
<stop stop-color="white" stop-opacity="0.87"/>
<stop offset="1" stop-color="white" stop-opacity="0.24"/>
</linearGradient>
<linearGradient id="paint20_linear_867_53084" x1="221.69" y1="-18.3903" x2="563.04" y2="821.21" gradientUnits="userSpaceOnUse">
<stop stop-color="white" stop-opacity="0.87"/>
<stop offset="1" stop-color="white" stop-opacity="0.24"/>
</linearGradient>
<linearGradient id="paint21_linear_867_53084" x1="171.754" y1="-5.77309" x2="513.105" y2="833.828" gradientUnits="userSpaceOnUse">
<stop stop-color="white" stop-opacity="0.87"/>
<stop offset="1" stop-color="white" stop-opacity="0.24"/>
</linearGradient>
<linearGradient id="paint22_linear_867_53084" x1="122.963" y1="10.7191" x2="464.314" y2="850.32" gradientUnits="userSpaceOnUse">
<stop stop-color="white" stop-opacity="0.87"/>
<stop offset="1" stop-color="white" stop-opacity="0.24"/>
</linearGradient>
<linearGradient id="paint23_linear_867_53084" x1="75.5396" y1="30.8129" x2="416.89" y2="870.414" gradientUnits="userSpaceOnUse">
<stop stop-color="white" stop-opacity="0.87"/>
<stop offset="1" stop-color="white" stop-opacity="0.24"/>
</linearGradient>
<linearGradient id="paint24_linear_867_53084" x1="29.6626" y1="54.223" x2="371.013" y2="893.824" gradientUnits="userSpaceOnUse">
<stop stop-color="white" stop-opacity="0.87"/>
<stop offset="1" stop-color="white" stop-opacity="0.24"/>
</linearGradient>
<linearGradient id="paint25_linear_867_53084" x1="-14.5424" y1="80.6488" x2="326.808" y2="920.249" gradientUnits="userSpaceOnUse">
<stop stop-color="white" stop-opacity="0.87"/>
<stop offset="1" stop-color="white" stop-opacity="0.24"/>
</linearGradient>
<linearGradient id="paint26_linear_867_53084" x1="-56.9936" y1="109.821" x2="284.357" y2="949.421" gradientUnits="userSpaceOnUse">
<stop stop-color="white" stop-opacity="0.87"/>
<stop offset="1" stop-color="white" stop-opacity="0.24"/>
</linearGradient>
<linearGradient id="paint27_linear_867_53084" x1="-97.6206" y1="141.477" x2="243.73" y2="981.078" gradientUnits="userSpaceOnUse">
<stop stop-color="white" stop-opacity="0.87"/>
<stop offset="1" stop-color="white" stop-opacity="0.24"/>
</linearGradient>
<linearGradient id="paint28_linear_867_53084" x1="-136.355" y1="175.407" x2="204.995" y2="1015.01" gradientUnits="userSpaceOnUse">
<stop stop-color="white" stop-opacity="0.87"/>
<stop offset="1" stop-color="white" stop-opacity="0.24"/>
</linearGradient>
</defs>
</svg>
