<svg width="110" height="75" viewBox="0 0 110 75" fill="none" xmlns="http://www.w3.org/2000/svg">
<path d="M71.1494 21.516C69.7508 18.8952 66.4897 17.9052 63.8692 19.304C62.2176 20.1855 61.2169 21.8025 61.0464 23.5351C60.6093 27.0999 58.5063 30.4043 55.0982 32.2228C49.539 35.1906 42.6214 33.0876 39.6543 27.5284C36.6869 21.9693 38.7905 15.0536 44.3499 12.086C47.7545 10.2692 51.6696 10.3592 54.8704 11.9783C54.9287 12.0068 54.9907 12.0325 55.0462 12.0625C55.0682 12.0743 55.0899 12.085 55.1102 12.094C56.596 12.8038 58.389 12.8265 59.9538 11.9913C62.5684 10.596 63.5567 7.34189 62.1609 4.72707C61.6134 3.70129 60.7808 2.92927 59.8151 2.44975L59.8178 2.44025C53.5794 -0.746582 45.9417 -0.937336 39.2928 2.61151C28.4982 8.37317 24.4201 21.7918 30.1813 32.5848C35.9409 43.3761 49.3598 47.4577 60.1546 41.6958C66.646 38.2317 70.6966 31.9923 71.6484 25.2219C71.9211 24.0091 71.7809 22.6978 71.1494 21.516Z" fill="#102694"/>
<path d="M70.4917 1.86951C67.9669 3.2173 66.4513 5.71336 66.2291 8.36644C65.9368 11.1105 64.3428 13.6606 61.729 15.0564C59.3171 16.3426 56.5681 16.3634 54.2435 15.3511C51.8404 13.7698 48.6709 13.5166 45.9543 14.9659C42.0002 17.0769 40.5041 21.9941 42.6157 25.9497C44.726 29.9043 49.6444 31.3976 53.5985 29.2873C56.1451 27.9282 57.6658 25.3974 57.8626 22.7121C58.2066 20.0415 59.7871 17.5719 62.343 16.2074C64.9575 14.8116 67.9704 14.9054 70.4122 16.1881L70.4364 16.1594C72.7555 17.4144 75.6351 17.5249 78.1354 16.1901C82.0897 14.0798 83.586 9.16246 81.4755 5.20835C79.3639 1.25274 74.4455 -0.241047 70.4917 1.86951Z" fill="#00B9F2"/>
<path d="M16.7055 57.8486H12.096C12.0633 57.4672 11.9761 57.1212 11.8344 56.8107C11.6982 56.5001 11.5075 56.2331 11.2623 56.0097C11.0226 55.7809 10.7311 55.6065 10.3878 55.4867C10.0445 55.3613 9.65497 55.2987 9.21908 55.2987C8.45627 55.2987 7.81061 55.4839 7.28209 55.8544C6.75902 56.2249 6.36127 56.7562 6.08884 57.4482C5.82186 58.1401 5.68837 58.9711 5.68837 59.9409C5.68837 60.9652 5.82458 61.8234 6.09701 62.5154C6.37489 63.2019 6.77537 63.7195 7.29844 64.0682C7.8215 64.4115 8.45082 64.5831 9.18639 64.5831C9.60593 64.5831 9.98188 64.5314 10.3143 64.4279C10.6466 64.3189 10.9354 64.1636 11.1806 63.962C11.4258 63.7604 11.6246 63.5179 11.7772 63.2346C11.9352 62.9458 12.0415 62.6216 12.096 62.262L16.7055 62.2947C16.651 63.003 16.4521 63.725 16.1089 64.4605C15.7656 65.1907 15.2779 65.8663 14.6459 66.4874C14.0193 67.1031 13.2429 67.599 12.3166 67.9749C11.3904 68.3509 10.3143 68.5388 9.08831 68.5388C7.5518 68.5388 6.17329 68.2092 4.9528 67.5499C3.73776 66.8906 2.77608 65.9208 2.06775 64.6403C1.36488 63.3599 1.01344 61.7934 1.01344 59.9409C1.01344 58.0775 1.37305 56.5083 2.09227 55.2333C2.81149 53.9529 3.78135 52.9857 5.00184 52.3319C6.22233 51.6726 7.58449 51.343 9.08831 51.343C10.1453 51.343 11.1179 51.4874 12.006 51.7761C12.8942 52.0649 13.6733 52.4872 14.3435 53.0429C15.0137 53.5933 15.5531 54.2716 15.9618 55.078C16.3704 55.8844 16.6183 56.8079 16.7055 57.8486ZM24.8805 68.5388C23.5183 68.5388 22.3523 68.2691 21.3825 67.7297C20.4126 67.1849 19.6689 66.4275 19.1512 65.4576C18.6336 64.4823 18.3748 63.3517 18.3748 62.0659C18.3748 60.78 18.6336 59.6521 19.1512 58.6823C19.6689 57.707 20.4126 56.9496 21.3825 56.4102C22.3523 55.8653 23.5183 55.5929 24.8805 55.5929C26.2426 55.5929 27.4086 55.8653 28.3785 56.4102C29.3483 56.9496 30.0921 57.707 30.6097 58.6823C31.1273 59.6521 31.3861 60.78 31.3861 62.0659C31.3861 63.3517 31.1273 64.4823 30.6097 65.4576C30.0921 66.4275 29.3483 67.1849 28.3785 67.7297C27.4086 68.2691 26.2426 68.5388 24.8805 68.5388ZM24.9132 65.2043C25.2946 65.2043 25.6242 65.0762 25.9021 64.8202C26.18 64.5641 26.3952 64.199 26.5478 63.725C26.7003 63.2509 26.7766 62.687 26.7766 62.0332C26.7766 61.3739 26.7003 60.81 26.5478 60.3414C26.3952 59.8674 26.18 59.5023 25.9021 59.2462C25.6242 58.9901 25.2946 58.8621 24.9132 58.8621C24.51 58.8621 24.164 58.9901 23.8752 59.2462C23.5864 59.5023 23.3658 59.8674 23.2132 60.3414C23.0606 60.81 22.9844 61.3739 22.9844 62.0332C22.9844 62.687 23.0606 63.2509 23.2132 63.725C23.3658 64.199 23.5864 64.5641 23.8752 64.8202C24.164 65.0762 24.51 65.2043 24.9132 65.2043ZM33.2169 68.31V55.7564H37.5976V58.1429H37.7283C37.9572 57.2602 38.3195 56.6145 38.8153 56.2059C39.3166 55.7972 39.9023 55.5929 40.5725 55.5929C40.7687 55.5929 40.9621 55.6092 41.1528 55.6419C41.3489 55.6692 41.5369 55.71 41.7167 55.7645V59.614C41.4933 59.5377 41.2182 59.4805 40.8913 59.4424C40.5643 59.4042 40.2837 59.3851 40.0495 59.3851C39.6081 59.3851 39.2104 59.4859 38.8562 59.6875C38.5075 59.8837 38.2323 60.1616 38.0307 60.5212C37.8291 60.8753 37.7283 61.2922 37.7283 61.7716V68.31H33.2169ZM48.4921 68.5388C47.1517 68.5388 45.9966 68.2828 45.0268 67.7706C44.0624 67.253 43.3186 66.512 42.7956 65.5475C42.2779 64.5777 42.0191 63.4171 42.0191 62.0659C42.0191 60.7691 42.2807 59.6358 42.8037 58.6659C43.3268 57.6961 44.0651 56.9414 45.0186 56.402C45.9721 55.8626 47.0973 55.5929 48.394 55.5929C49.3421 55.5929 50.2002 55.74 50.9685 56.0342C51.7368 56.3285 52.3933 56.7562 52.9382 57.3174C53.483 57.8732 53.9026 58.5488 54.1968 59.3443C54.491 60.1398 54.6381 61.0361 54.6381 62.0332V63.0793H43.4249V60.5947H50.4863C50.4808 60.2351 50.3882 59.9191 50.2084 59.6467C50.0341 59.3688 49.797 59.1536 49.4974 59.001C49.2031 58.843 48.8681 58.764 48.4921 58.764C48.127 58.764 47.792 58.843 47.4868 59.001C47.1817 59.1536 46.9365 59.3661 46.7513 59.6385C46.5715 59.9109 46.4761 60.2297 46.4652 60.5947V63.2755C46.4652 63.6787 46.5497 64.0383 46.7186 64.3543C46.8875 64.6703 47.1299 64.9182 47.446 65.098C47.762 65.2778 48.1434 65.3677 48.5902 65.3677C48.9007 65.3677 49.1841 65.3242 49.4402 65.237C49.7017 65.1498 49.9251 65.0245 50.1103 64.861C50.2956 64.6921 50.4318 64.4905 50.519 64.2562H54.6381C54.4965 65.128 54.1614 65.8854 53.6329 66.5283C53.1044 67.1658 52.4042 67.6616 51.5324 68.0158C50.6661 68.3645 49.6527 68.5388 48.4921 68.5388ZM72.0404 57.8486H67.4308C67.3982 57.4672 67.311 57.1212 67.1693 56.8107C67.0331 56.5001 66.8424 56.2331 66.5972 56.0097C66.3575 55.7809 66.066 55.6065 65.7227 55.4867C65.3794 55.3613 64.9899 55.2987 64.554 55.2987C63.7912 55.2987 63.1455 55.4839 62.617 55.8544C62.0939 56.2249 61.6962 56.7562 61.4237 57.4482C61.1567 58.1401 61.0233 58.9711 61.0233 59.9409C61.0233 60.9652 61.1595 61.8234 61.4319 62.5154C61.7098 63.2019 62.1103 63.7195 62.6333 64.0682C63.1564 64.4115 63.7857 64.5831 64.5213 64.5831C64.9408 64.5831 65.3168 64.5314 65.6491 64.4279C65.9815 64.3189 66.2703 64.1636 66.5155 63.962C66.7607 63.7604 66.9595 63.5179 67.1121 63.2346C67.2701 62.9458 67.3764 62.6216 67.4308 62.262L72.0404 62.2947C71.9859 63.003 71.787 63.725 71.4438 64.4605C71.1005 65.1907 70.6128 65.8663 69.9808 66.4874C69.3542 67.1031 68.5778 67.599 67.6515 67.9749C66.7252 68.3509 65.6491 68.5388 64.4232 68.5388C62.8867 68.5388 61.5082 68.2092 60.2877 67.5499C59.0727 66.8906 58.111 65.9208 57.4026 64.6403C56.6998 63.3599 56.3483 61.7934 56.3483 59.9409C56.3483 58.0775 56.7079 56.5083 57.4272 55.2333C58.1464 53.9529 59.1162 52.9857 60.3367 52.3319C61.5572 51.6726 62.9194 51.343 64.4232 51.343C65.4802 51.343 66.4528 51.4874 67.3409 51.7761C68.2291 52.0649 69.0082 52.4872 69.6784 53.0429C70.3486 53.5933 70.888 54.2716 71.2966 55.078C71.7053 55.8844 71.9532 56.8079 72.0404 57.8486ZM74.102 68.31V51.5718H81.3269C82.5692 51.5718 83.6562 51.7979 84.5879 52.2502C85.5196 52.7024 86.2443 53.3535 86.7619 54.2035C87.2795 55.0535 87.5383 56.0724 87.5383 57.2602C87.5383 58.4589 87.2713 59.4696 86.7374 60.2923C86.2089 61.1151 85.4651 61.7362 84.5062 62.1558C83.5526 62.5753 82.4384 62.7851 81.1634 62.7851H76.8481V59.2544H80.2481C80.782 59.2544 81.237 59.189 81.6129 59.0582C81.9943 58.922 82.2858 58.7068 82.4874 58.4126C82.6945 58.1183 82.798 57.7342 82.798 57.2602C82.798 56.7807 82.6945 56.3911 82.4874 56.0915C82.2858 55.7863 81.9943 55.5629 81.6129 55.4213C81.237 55.2742 80.782 55.2006 80.2481 55.2006H78.6462V68.31H74.102ZM83.9095 60.6274L88.0941 68.31H83.1576L79.0712 60.6274H83.9095ZM89.4753 51.5718H95.131L99.0213 61.0524H99.2174L103.108 51.5718H108.763V68.31H104.317V58.6332H104.187L100.46 68.1792H97.779L94.0522 58.5679H93.9214V68.31H89.4753V51.5718Z" fill="#102694"/>
</svg>
